<svg width="369" height="456" viewBox="0 0 369 456" fill="none" xmlns="http://www.w3.org/2000/svg">
<path d="M33.5715 301.686C33.5715 322.917 37.5581 342.921 45.6493 361.651C53.7169 380.452 64.8511 396.752 78.8868 410.646C92.9226 424.446 109.294 435.415 128.118 443.483C146.848 451.55 166.993 455.655 188.413 455.655C209.832 455.655 229.883 451.574 248.613 443.483C267.414 435.415 283.808 424.422 297.915 410.481C311.951 396.54 322.99 380.216 331.152 361.58C339.385 342.85 343.466 322.917 343.466 301.686C343.466 280.456 339.385 260.617 331.317 242.052C323.25 223.464 312.186 207.164 298.174 193.222C284.068 179.281 267.673 168.288 248.802 160.221C229.906 152.153 209.855 148.048 188.436 148.048C167.017 148.048 146.895 152.035 128.142 160.032C109.341 168.029 92.9462 178.998 78.9104 192.963C64.8747 206.904 53.7405 223.134 45.6729 241.793C37.6053 260.381 33.5951 280.362 33.5951 301.686H33.5715Z" fill="#0D3B6D"/>
<path fill-rule="evenodd" clip-rule="evenodd" d="M338.923 173.478C338.617 175.719 338.57 177.984 338.31 180.248C337.98 182.796 337.249 185.815 334.088 185.815C330.172 185.815 326.28 185.98 322.364 186.051C320.642 186.051 317.882 186.146 316.466 184.99C314.933 183.739 315.216 181.569 315.499 179.824C316.018 176.733 316.844 173.62 317.434 170.506C318.967 162.533 320.618 154.583 322.128 146.61C323.001 142.08 323.85 137.528 324.581 132.951C324.935 130.758 325.478 127.88 325.595 125.521C313.919 121.746 313.895 102.144 328.025 97.9682V67.6086C325.737 68.0332 322.67 69.024 320.807 69.5194C315.57 70.9583 310.357 72.5152 305.143 74.0485C299.741 75.6526 294.339 77.2567 288.914 78.8372C285.8 79.7336 282.545 80.7479 279.36 81.5264V147.742C279.36 148.167 279.195 148.497 278.841 148.756C278.511 148.992 278.133 149.087 277.756 148.992C274.642 148.167 271.929 145.124 269.24 143.354C266.622 141.632 263.767 140.429 260.984 139.014C254.756 135.9 249.284 134.036 242.631 132.055C219.868 125.356 200.619 125.804 177.289 125.804C158.323 125.804 137.021 128.045 119.825 136.678C115.414 138.872 111.474 141.444 107.582 144.463C105.883 145.784 102.84 148.45 100.812 148.992C100.411 149.11 100.033 148.992 99.7266 148.756C99.3963 148.52 99.2076 148.143 99.2076 147.742V81.5028L75.5238 75.2044C67.2439 73.1521 58.964 71.0527 50.7077 68.7881C42.5222 66.5471 34.3366 64.3061 26.1039 62.2302C21.8342 61.1687 17.5174 60.2251 13.2713 59.0221C9.56772 57.9605 5.10931 56.2857 1.24064 56.2149C0.745265 56.2149 0.344245 55.9318 0.13194 55.5072C-0.0803651 55.0826 -0.0331862 54.5872 0.249887 54.1862C2.16063 51.5678 3.45805 51.8981 6.35955 51.1196L92.6025 26.964C123.434 18.3303 154.124 9.36629 184.979 0.897686C188.635 -0.0930704 191.442 -0.328965 195.099 0.520255C199.439 1.51101 204.039 3.3274 208.356 4.62482L299.388 32.0122C311.159 35.5506 322.883 39.1833 334.654 42.7218C341.967 44.9156 349.279 47.1094 356.616 49.1853C359.163 49.8929 361.687 50.6242 364.259 51.2847C365.061 51.497 366.948 52.0396 367.75 52.0632C368.457 52.0632 369 52.6529 369 53.337V54.9411C369 55.6016 368.481 56.1442 367.844 56.1913C362.89 56.6159 356.521 59.0928 351.638 60.4846C346.873 61.8292 341.188 64.1646 336.211 64.8487V97.9211C342.839 99.8318 347.345 104.998 347.298 112.169C347.251 117.713 344.184 123.468 338.853 125.379C341.235 135.405 344.278 145.241 346.732 155.243C348.005 160.504 349.562 165.694 351.025 170.907C351.921 174.021 353.172 177.276 353.832 180.39C354.351 182.867 354.233 185.792 350.954 185.792C344.09 185.792 342.651 177.818 338.971 173.454L338.9 173.502L338.923 173.478Z" fill="#0D3B6D"/>
</svg>
