<?xml version="1.0" encoding="UTF-8"?>
<!DOCTYPE svg PUBLIC "-//W3C//DTD SVG 1.1//EN" "http://www.w3.org/Graphics/SVG/1.1/DTD/svg11.dtd">
<!-- Creator: CorelDRAW 2021 (64-Bit) -->
<svg xmlns="http://www.w3.org/2000/svg" xml:space="preserve" width="33.3941mm" height="8.0281mm" version="1.1" style="shape-rendering:geometricPrecision; text-rendering:geometricPrecision; image-rendering:optimizeQuality; fill-rule:evenodd; clip-rule:evenodd"
viewBox="0 0 993.73 238.9"
 xmlns:xlink="http://www.w3.org/1999/xlink"
 xmlns:xodm="http://www.corel.com/coreldraw/odm/2003">
 <defs>
  <style type="text/css">
   <![CDATA[
    .fil2 {fill:white}
    .fil1 {fill:white}
    .fil0 {fill:white;fill-rule:nonzero}
   ]]>
  </style>
 </defs>
 <g id="Layer_x0020_1">
  <metadata id="CorelCorpID_0Corel-Layer"/>
  <path class="fil0" d="M2.98 212.07c4.2,5.33 8.69,9.7 13.52,13.14 4.79,3.45 9.78,6.22 14.95,8.27 5.17,2.06 10.42,3.44 15.75,4.24 5.33,0.8 10.67,1.18 16,1.18 7.89,0 15.49,-1.18 22.85,-3.49 7.35,-2.31 13.9,-5.67 19.61,-10.08 5.75,-4.41 10.33,-9.87 13.77,-16.29 3.49,-6.42 5.21,-13.77 5.21,-22.09 0,-4.83 -0.54,-9.66 -1.6,-14.57 -1.05,-4.87 -3.02,-9.62 -5.88,-14.15 -2.9,-4.54 -6.97,-8.78 -12.22,-12.72 -5.25,-3.95 -12.05,-7.26 -20.45,-9.99 -6.13,-1.97 -11.3,-3.57 -15.49,-4.79 -4.2,-1.18 -7.6,-2.27 -10.16,-3.27 -2.6,-1.01 -4.45,-2.1 -5.54,-3.28 -1.09,-1.18 -1.64,-2.77 -1.64,-4.79 0,-2.01 1.22,-3.78 3.61,-5.37 2.44,-1.55 6.13,-2.35 11.09,-2.35 2.73,0 5.16,0.29 7.31,0.84 2.14,0.59 4.07,1.35 5.84,2.23 1.72,0.92 3.4,2.01 4.91,3.23 1.51,1.22 3.02,2.43 4.54,3.65 1.64,1.43 3.07,2.14 4.2,2.14 1.13,0 2.48,-0.67 4.07,-1.97l19.28 -16.8c2.1,-1.85 3.07,-3.48 2.94,-5 -0.12,-1.47 -1.05,-3.02 -2.81,-4.58 -2.52,-2.35 -5.29,-4.87 -8.31,-7.52 -3.02,-2.69 -6.55,-5.17 -10.58,-7.43 -4.03,-2.27 -8.69,-4.16 -13.98,-5.63 -5.29,-1.47 -11.47,-2.23 -18.56,-2.23 -9.53,0 -18.06,1.13 -25.53,3.4 -7.48,2.27 -13.77,5.42 -18.9,9.41 -5.12,3.95 -8.99,8.73 -11.67,14.24 -2.65,5.5 -3.99,11.51 -3.99,17.97 0,7.18 0.92,13.56 2.77,19.23 1.81,5.62 4.62,10.62 8.44,15.03 3.82,4.37 8.65,8.15 14.49,11.42 5.88,3.23 12.85,6 20.87,8.4 5.17,1.47 9.36,2.77 12.55,3.9 3.19,1.13 5.71,2.27 7.52,3.36 1.85,1.09 3.11,2.27 3.74,3.53 0.67,1.3 1.01,2.86 1.01,4.66 0,1.6 -0.25,3.07 -0.8,4.41 -0.5,1.35 -1.43,2.52 -2.77,3.53 -1.3,1.01 -3.02,1.81 -5.21,2.39 -2.23,0.55 -4.95,0.84 -8.27,0.84 -2.9,0 -5.75,-0.38 -8.52,-1.18 -2.82,-0.8 -5.54,-1.85 -8.15,-3.15 -2.65,-1.3 -5.12,-2.86 -7.47,-4.58 -2.4,-1.76 -4.62,-3.57 -6.72,-5.42 -1.81,-1.55 -3.44,-2.35 -4.83,-2.35 -1.26,0 -2.39,0.55 -3.44,1.6l-17.68 17.3c-1.18,1.13 -1.89,2.18 -2.27,3.19 -0.34,1.01 -0.42,2.01 -0.25,2.94 0.17,0.97 0.55,1.93 1.13,2.82 0.55,0.92 1.13,1.76 1.76,2.56zm143.57 -56.4c0,11.38 2.14,22.09 6.47,32.12 4.32,10.08 10.29,18.81 17.8,26.25 7.52,7.39 16.29,13.27 26.37,17.59 10.03,4.33 20.83,6.51 32.29,6.51 11.47,0 22.21,-2.18 32.25,-6.51 10.08,-4.32 18.85,-10.2 26.41,-17.68 7.52,-7.48 13.44,-16.21 17.8,-26.2 4.41,-10.03 6.59,-20.7 6.59,-32.08 0,-11.34 -2.18,-22 -6.51,-31.95 -4.32,-9.95 -10.25,-18.69 -17.76,-26.16 -7.56,-7.47 -16.33,-13.35 -26.45,-17.68 -10.12,-4.33 -20.87,-6.51 -32.33,-6.51 -11.46,0 -22.26,2.14 -32.29,6.42 -10.08,4.29 -18.85,10.16 -26.37,17.64 -7.52,7.48 -13.48,16.17 -17.8,26.16 -4.33,9.95 -6.47,20.66 -6.47,32.08zm46.19 0c0,-5.37 0.88,-10.5 2.69,-15.28 1.76,-4.79 4.29,-8.99 7.52,-12.6 3.23,-3.61 7.14,-6.51 11.63,-8.65 4.49,-2.14 9.53,-3.19 15.03,-3.19 5.5,0 10.5,1.05 14.95,3.19 4.45,2.14 8.27,5.04 11.47,8.69 3.19,3.65 5.67,7.89 7.43,12.68 1.76,4.79 2.6,9.87 2.6,15.16 0,5.33 -0.84,10.37 -2.6,15.2 -1.76,4.79 -4.24,8.98 -7.48,12.68 -3.23,3.65 -7.09,6.55 -11.55,8.73 -4.45,2.18 -9.45,3.28 -14.95,3.28 -5.54,0 -10.54,-1.05 -15.03,-3.19 -4.49,-2.14 -8.36,-5.04 -11.55,-8.69 -3.19,-3.69 -5.71,-7.94 -7.48,-12.76 -1.81,-4.83 -2.69,-9.91 -2.69,-15.24zm144.24 74.03c0,2.01 0.55,3.53 1.64,4.49 1.09,0.96 2.6,1.43 4.54,1.43l35.65 0c1.93,0 3.45,-0.54 4.49,-1.64 1.05,-1.09 1.55,-2.52 1.55,-4.29l0 -212.12c0,-1.76 -0.59,-3.19 -1.72,-4.28 -1.13,-1.09 -2.57,-1.64 -4.32,-1.64l-35.65 0c-1.76,0 -3.23,0.51 -4.41,1.47 -1.17,0.96 -1.76,2.44 -1.76,4.45l0 212.12zm78.06 0.42c0,3.65 1.81,5.5 5.46,5.5l37.21 0c3.65,0 5.46,-1.85 5.46,-5.5l0 -149.74c0,-1.64 -0.5,-2.98 -1.55,-3.99 -1.05,-1.01 -2.35,-1.51 -3.9,-1.51l-37.21 0c-1.3,0 -2.52,0.46 -3.69,1.39 -1.18,0.93 -1.76,2.27 -1.76,4.12l0 149.74zm183.97 -45.98c-1.56,1.13 -3.4,2.35 -5.46,3.65 -2.06,1.3 -4.28,2.52 -6.76,3.61 -2.43,1.09 -5,1.97 -7.73,2.69 -2.73,0.71 -5.54,1.05 -8.53,1.05 -5.08,0 -9.83,-0.97 -14.32,-2.82 -4.45,-1.89 -8.31,-4.58 -11.55,-8.06 -3.23,-3.48 -5.8,-7.68 -7.69,-12.51 -1.84,-4.87 -2.81,-10.25 -2.81,-16.21 0,-5.92 1.01,-11.34 2.98,-16.25 1.93,-4.87 4.58,-9.11 7.94,-12.64 3.32,-3.53 7.14,-6.3 11.55,-8.27 4.37,-1.98 8.95,-2.94 13.77,-2.94 5,0 9.78,0.71 14.4,2.18 4.66,1.43 9.74,4.07 15.24,7.94 0.88,0.59 1.93,0.88 3.15,0.88 1.38,0 2.39,-0.46 3.02,-1.43l17.97 -27.84c0.71,-1.13 0.88,-2.18 0.59,-3.11 -0.29,-0.92 -0.97,-1.81 -2.01,-2.69 -3.7,-2.9 -7.39,-5.46 -11.09,-7.77 -3.74,-2.27 -7.68,-4.16 -11.88,-5.71 -4.2,-1.51 -8.73,-2.69 -13.52,-3.53 -4.83,-0.84 -10.2,-1.26 -16.17,-1.26 -11.25,0 -21.88,2.18 -31.79,6.51 -9.95,4.32 -18.6,10.2 -25.99,17.64 -7.39,7.43 -13.23,16.12 -17.51,26.08 -4.29,9.99 -6.42,20.66 -6.42,32.04 0,12.05 2.14,23.14 6.47,33.3 4.32,10.16 10.25,18.9 17.72,26.24 7.48,7.35 16.25,13.06 26.33,17.18 10.03,4.12 20.79,6.21 32.12,6.3 4.74,0 9.53,-0.5 14.4,-1.55 4.83,-1.05 9.57,-2.48 14.15,-4.28 4.58,-1.81 8.9,-3.86 12.85,-6.22 3.99,-2.35 7.43,-4.83 10.33,-7.35 1.47,-1.3 2.27,-2.52 2.35,-3.65 0.08,-1.13 -0.42,-2.6 -1.47,-4.32l-17.97 -26.37c-0.59,-1.13 -1.68,-1.68 -3.27,-1.68 -1.13,0 -2.27,0.38 -3.4,1.18zm49.89 45.98c0,3.65 1.81,5.5 5.46,5.5l37.21 0c3.65,0 5.46,-1.85 5.46,-5.5l0 -149.74c0,-1.64 -0.5,-2.98 -1.55,-3.99 -1.05,-1.01 -2.35,-1.51 -3.9,-1.51l-37.21 0c-1.3,0 -2.52,0.46 -3.69,1.39 -1.18,0.93 -1.76,2.27 -1.76,4.12l0 149.74zm157.84 -128.2c3.32,0 5,-1.72 5,-5.12l0 -33.97c0,-1.22 -0.42,-2.4 -1.26,-3.44 -0.84,-1.05 -2.06,-1.56 -3.74,-1.56l-21.12 0 0 -37.93c0,-2.65 -0.61,-4.6 -1.89,-5.92 -1.28,-1.32 -2.9,-1.97 -4.79,-1.97 -11.65,0 -24.08,-0.19 -35.99,-0.16 -2.65,0.01 -4.19,1.91 -4.96,3.02 -0.78,1.14 -1.18,2.66 -1.18,4.45l0 38.51 -17.59 0c-1.68,0 -2.94,0.47 -3.82,1.39 -0.88,0.93 -1.3,2.1 -1.3,3.61l0 33.97c0,3.4 1.72,5.12 5.12,5.12l17.59 0 0 128.2c0,3.65 1.81,5.5 5.5,5.5l37.67 0c3.74,0 5.63,-1.85 5.63,-5.5l0 -128.2 21.12 0zm138.87 53.58c0,5.33 -1.01,10.46 -2.98,15.28 -1.97,4.87 -4.66,9.11 -8.1,12.68 -3.48,3.61 -7.56,6.47 -12.22,8.61 -4.7,2.14 -9.74,3.23 -15.16,3.23 -5.33,0 -10.33,-1.01 -14.95,-3.02 -4.66,-2.01 -8.61,-4.79 -11.97,-8.36 -3.32,-3.53 -5.92,-7.73 -7.85,-12.6 -1.93,-4.87 -2.9,-10.12 -2.9,-15.83 0,-5.96 1.05,-11.38 3.11,-16.21 2.06,-4.87 4.79,-9.07 8.23,-12.55 3.48,-3.53 7.47,-6.22 12.01,-8.15 4.58,-1.93 9.32,-2.9 14.32,-2.9 5.42,0 10.46,1.09 15.16,3.23 4.66,2.14 8.74,5.04 12.22,8.65 3.44,3.65 6.13,7.85 8.1,12.68 1.98,4.83 2.98,9.91 2.98,15.24zm48.12 -75c0,-3.74 -1.85,-5.63 -5.63,-5.63l-26.75 0c-1.85,0 -3.07,0.42 -3.7,1.3 -0.59,0.88 -1.26,2.31 -1.97,4.32l-4.95 13.82c-5.63,-6.55 -12.22,-11.72 -19.82,-15.49 -7.64,-3.82 -16.29,-5.71 -25.99,-5.71 -11.38,0 -22,2.18 -31.91,6.51 -9.87,4.32 -18.43,10.2 -25.62,17.68 -7.22,7.48 -12.93,16.25 -17.09,26.33 -4.16,10.03 -6.22,20.74 -6.22,32.12 0,12.34 2.18,23.56 6.64,33.72 4.41,10.16 10.37,18.81 17.85,26.04 7.48,7.22 16.08,12.81 25.83,16.71 9.78,3.95 19.94,5.92 30.53,5.92 8.48,0 16.42,-1.68 23.77,-5 7.35,-3.32 13.9,-7.98 19.65,-13.98l1.72 4.45c0.34,0.97 0.8,2.14 1.3,3.53 0.55,1.34 1.18,2.65 1.89,3.95 0.76,1.26 1.64,2.35 2.65,3.23 1.01,0.88 2.18,1.3 3.49,1.3l28.72 0c3.78,0 5.63,-1.89 5.63,-5.63l0 -149.49z"/>
  <circle class="fil1" cx="439.11" cy="35.72" r="24.06"/>
  <circle class="fil1" cx="672.96" cy="35.72" r="24.06"/>
  <path class="fil2" d="M311.29 92.95c-0.16,1.2 -0.19,2.41 -0.34,3.62 -0.17,1.36 -0.57,2.98 -2.26,2.98 -2.1,0 -4.19,0.1 -6.29,0.12 -0.93,0.01 -2.4,0.05 -3.16,-0.57 -0.82,-0.67 -0.67,-1.84 -0.51,-2.76 0.28,-1.66 0.72,-3.33 1.04,-5 0.82,-4.27 1.71,-8.53 2.51,-12.8 0.46,-2.43 0.91,-4.87 1.31,-7.31 0.19,-1.18 0.48,-2.72 0.54,-3.99 -6.25,-2.03 -6.27,-12.53 1.3,-14.75l0 -16.26c-1.23,0.23 -2.87,0.75 -3.87,1.03 -2.81,0.78 -5.6,1.6 -8.39,2.43 -2.9,0.86 -5.79,1.72 -8.7,2.57 -1.68,0.49 -3.41,1.02 -5.11,1.45l0 35.47c0,0.22 -0.09,0.41 -0.27,0.54 -0.17,0.13 -0.38,0.17 -0.59,0.12 -1.68,-0.45 -3.13,-2.07 -4.56,-3.01 -1.4,-0.93 -2.93,-1.57 -4.43,-2.32 -3.34,-1.68 -6.26,-2.67 -9.83,-3.72 -12.19,-3.59 -22.5,-3.35 -35.01,-3.35 -10.16,0 -21.57,1.2 -30.78,5.82 -2.36,1.18 -4.47,2.56 -6.56,4.16 -0.91,0.7 -2.54,2.13 -3.63,2.42 -0.21,0.06 -0.42,0.02 -0.59,-0.12 -0.17,-0.13 -0.27,-0.32 -0.27,-0.54l0 -35.48 -12.69 -3.38c-4.44,-1.1 -8.88,-2.22 -13.3,-3.43 -4.39,-1.2 -8.77,-2.4 -13.19,-3.51 -2.29,-0.58 -4.59,-1.08 -6.87,-1.72 -1.99,-0.57 -4.37,-1.46 -6.44,-1.51 -0.26,-0.01 -0.48,-0.15 -0.6,-0.38 -0.11,-0.23 -0.09,-0.49 0.06,-0.7 1.03,-1.4 1.73,-1.24 3.27,-1.64l46.2 -12.94c16.51,-4.62 32.96,-9.43 49.49,-13.97 1.95,-0.54 3.46,-0.65 5.42,-0.2 2.32,0.54 4.79,1.5 7.1,2.2l48.76 14.67c6.3,1.9 12.59,3.85 18.89,5.74 3.92,1.18 7.84,2.34 11.77,3.46 1.36,0.39 2.72,0.77 4.09,1.12 0.43,0.11 1.44,0.4 1.87,0.42 0.37,0.01 0.67,0.31 0.67,0.68l0 0.86c0,0.36 -0.27,0.65 -0.62,0.68 -2.66,0.22 -6.06,1.56 -8.69,2.31 -2.56,0.73 -5.59,1.98 -8.26,2.34l0 17.72c3.55,1.02 5.97,3.79 5.94,7.63 -0.02,2.97 -1.66,6.06 -4.52,7.08 1.28,5.37 2.9,10.64 4.22,16 0.69,2.82 1.51,5.6 2.3,8.39 0.47,1.66 1.15,3.4 1.5,5.08 0.28,1.32 0.21,2.89 -1.55,2.89 -3.68,0 -4.45,-4.27 -6.41,-6.61z"/>
 </g>
</svg>
